<svg xmlns="http://www.w3.org/2000/svg" viewBox="64 -867 1080 647">
	<path d="m 114 -817 v 31 h 980 v -31 h 0 m -979 61 h 979 v 31 c -30 1 -56 20 -64 57 v 345 h 28 v 53 h -190 v -53 h 30 c -38 -412 -547 -413 -588 0 h 29 v 53 h -189 v -53 h 30 v -345 c -7 -31 -29 -57 -65 -57 v -31 m 154 317 c 21 -50 42 -89 71 -120 v -134 c -11 -48 -67 -39 -72 0 v 255 m 104 -155 c 25 -23 47 -38 72 -52 v -49 c -8 -40 -61 -44 -72 0 v 101 m 104 -67 c 24 -10 47 -18 72 -22 c 1 -57 -63 -55 -72 -13 v 35 m 184 -21 c 27 3 48 10 72 21 v -28 c -4 -50 -67 -49 -72 0 v 7 m 105 35 c 27 15 47 31 71 53 v -100 c -2 -32 -56 -53 -71 0 v 47 m 176 209 v -254 c -6 -42 -62 -50 -73 0 v 131 c 34 40 52 76 73 123 m -329 72 l 18 33 a 1 1 0 0 0 31 38 c 7 -6 11 -12 8 -26 c -3 -12 -17 -21 -30 -18 l -17 -32 c 9 -6 17 -15 19 -30 h 42 a 1 1 0 0 0 48 -11 c -2 -10 -11 -19 -24 -19 c -15 0 -22 11 -24 19 h -41 c -2 -13 -8 -24 -20 -31 l 19 -47 a 1 1 0 0 0 9 -49 c -11 -2 -22 3 -27 14 c -4 11 -3 20 7 30 l -20 47 c -12 -3 -31 -2 -41 12 l -44 -30 a 1 1 0 0 0 -47 -16 c -4 14 2 24 9 28 c 12 7 21 5 31 -2 l 43 29 c -9 21 -5 34 2 43 l -36 32 a 1 1 0 0 0 -28 39 c 10 7 23 6 32 -2 c 9 -11 8 -20 4 -28 l 36 -31 c 13 11 26 13 41 8" fill="#FFF"/>
</svg>